# xmcd CD database file
#
# Track frame offsets:
#	150
#	16512
#	29957
#	48717
#	65807
#	81215
#	100045
#	113862
#	135485
#	156235
#	171145
#	191745
#	205062
#	224747
#	241180
#
# Disc length: 3474 seconds
#
# Revision: 5
# Processed by: cddbd v1.5.2PL0 Copyright (c) Steve Scherf et al.
# Submitted via: CDex 1.51
#
DISCID=d80d900f
DTITLE=Various Artist - MM-6193
DYEAR=1900
DGENRE=Blues
TTITLE0=Shania Twain  - Any Man Of Mine
TTITLE1=LeAnn Rimes  - Hurt Me
TTITLE2=Shania Twain - Whose Bed Have Your Boots Been Under
TTITLE3=Shania Twain - If It Don't Take Two
TTITLE4=LeAnn Rimes - Honestly
TTITLE5=Shania Twain - Home Ain't Where His Heart Is (Anymore)
TTITLE6=LeAnn Rimes - Blue
TTITLE7=Shania Twain - Is There Life After Love
TTITLE8=Shania Twain - (If You're Not In It For Love) I'm Outta Here
TTITLE9=LeAnn Rimes - The Light In Your Eyes
TTITLE10=Shania Twain - Raining On Our Love
TTITLE11=LeAnn Rimes - My Baby
TTITLE12=Shania Twain - You Win My Love
TTITLE13=LeAnn Rimes - One Way Ticket (Because I Can)
TTITLE14=Shania Twain - The Woman In Me (Needs The Man In You)
EXTD=
EXTT0=
EXTT1=
EXTT2=
EXTT3=
EXTT4=
EXTT5=
EXTT6=
EXTT7=
EXTT8=
EXTT9=
EXTT10=
EXTT11=
EXTT12=
EXTT13=
EXTT14=
PLAYORDER=
